<svg width="108" height="122" viewBox="0 0 108 122" fill="none" xmlns="http://www.w3.org/2000/svg">
<path d="M51.1181 1.04918C49.5971 1.62881 37.5076 6.1555 24.2381 11.1514C10.9685 16.1473 0.0591153 20.26 0.00666642 20.2876C-0.0457825 20.3428 0.216462 23.2134 0.609829 26.6636C2.73401 46.6196 3.75676 55.949 4.30748 61.1106C4.67462 64.2848 5.6187 73.1173 6.40543 80.7078C7.21839 88.2983 7.92645 94.7571 7.9789 95.0607C8.0838 95.4471 9.2639 96.2752 11.7028 97.6553C13.6958 98.7869 24.0283 104.721 34.6754 110.849L54.029 122L56.8351 120.371C62.4209 117.114 91.3989 100.443 96.434 97.5725C98.7942 96.2476 99.948 95.4471 100.027 95.0607C100.237 94.0394 108.104 20.3704 107.999 20.2876C107.92 20.2324 99.6858 17.1134 81.5385 10.3234C79.0209 9.3849 71.783 6.65233 65.4891 4.27858C59.169 1.90483 53.9766 -0.0272899 53.9504 0.000311889C53.8979 0.000311889 52.6391 0.469541 51.1181 1.04918ZM71.0225 52.6368C80.3059 74.3042 87.9372 92.3005 88.0159 92.6317L88.147 93.2666H81.8532C77.1328 93.2666 75.5069 93.1838 75.3233 92.9078C75.1659 92.7422 73.5925 88.6847 71.8092 83.9648L68.5574 75.3255H54.0028H39.4482L36.0653 84.296L32.6561 93.2666H26.2573H19.8586L19.9897 92.6317C20.0684 92.3005 23.294 84.6272 27.1752 75.6015C31.0564 66.5757 38.6353 48.8278 44.0375 36.2138C49.4398 23.5722 53.9241 13.2215 54.0028 13.2215C54.0815 13.2215 61.739 30.9695 71.0225 52.6368Z" fill="#C40530"/>
<path d="M49.1775 51.5052C46.6075 58.0192 44.4309 63.4843 44.3785 63.6499C44.2736 63.926 46.2929 64.0088 54.0028 64.0088C61.7128 64.0088 63.7321 63.926 63.6272 63.6499C62.3947 60.3377 54.1077 39.7192 54.0028 39.7192C53.9242 39.7192 51.7475 45.0188 49.1775 51.5052Z" fill="#C40530"/>
</svg>
