<svg width="179" height="125" viewBox="0 0 179 125" fill="none" xmlns="http://www.w3.org/2000/svg">
<path d="M42.2365 32.5715H75.9975V35.6747H45.3312V59.0304H74.1688V62.1336H45.3312V87.7758H76.3492V90.879H42.2365V32.5715ZM79.0219 32.5715H82.609L98.5049 58.2137L114.752 32.5715L136.852 0L100.545 60.9086L119.254 90.879H115.526L98.5049 63.6035L81.4133 90.879H77.7559L96.6058 60.9086L79.0219 32.5715ZM120.59 35.6747V32.5715H159.064V35.6747H141.339V90.879H138.244V35.6747H120.59ZM0 32.5715H3.86845L57.2122 124.884L35.1678 90.879L3.23543 36.9813L3.09476 90.879H0V32.5715ZM158.752 86.8393C158.12 86.8393 157.645 86.2727 157.645 85.5406C157.645 84.8084 158.12 84.2419 158.752 84.2419C159.392 84.2419 159.858 84.8084 159.858 85.5406C159.858 86.2727 159.392 86.8393 158.752 86.8393ZM161.793 83.4226H163.449C163.471 84.4598 164.126 85.1571 165.09 85.1571C166.166 85.1571 166.776 84.4075 166.776 83.0042V74.1137H168.462V83.0129C168.462 85.5406 167.197 86.9962 165.105 86.9962C163.14 86.9962 161.793 85.5842 161.793 83.4226ZM170.667 83.3092H172.338C172.481 84.5034 173.49 85.2617 174.943 85.2617C176.298 85.2617 177.291 84.4511 177.291 83.3354C177.291 82.3766 176.659 81.8014 175.221 81.4091L173.821 81.0169C171.857 80.4852 170.961 79.387 170.961 77.5391C170.961 75.2991 172.542 73.8086 174.913 73.8086C177.118 73.8086 178.729 75.2991 178.827 77.4171H177.186C177.028 76.2579 176.155 75.5344 174.89 75.5344C173.558 75.5344 172.67 76.2753 172.67 77.4084C172.67 78.3062 173.242 78.8204 174.657 79.2039L175.854 79.5439C178.082 80.1453 179 81.1912 179 83.0826C179 85.4883 177.389 86.9962 174.815 86.9962C172.406 86.9962 170.788 85.558 170.667 83.3092Z" fill="black"/>
</svg>
