<svg width="124" height="106" viewBox="0 0 124 106" fill="none" xmlns="http://www.w3.org/2000/svg">
<path fill-rule="evenodd" clip-rule="evenodd" d="M31 35.3333C35.1327 11.7787 45.4673 0 62 0C86.8 0 89.9 26.5 102.3 30.9167C110.567 33.862 117.8 29.4454 124 17.6667C119.867 41.2213 109.533 53 93 53C68.2 53 65.1 26.5 52.7 22.0833C44.4327 19.138 37.2 23.5546 31 35.3333ZM0 88.3333C4.13269 64.7787 14.4673 53 31 53C55.8 53 58.9 79.5 71.3 83.9167C79.5673 86.862 86.8 82.4454 93 70.6667C88.8673 94.2213 78.5327 106 62 106C37.2 106 34.1 79.5 21.7 75.0833C13.4327 72.138 6.2 76.5546 0 88.3333Z" fill="url(#paint0_linear_385_400)"/>
<defs>
<linearGradient id="paint0_linear_385_400" x1="3.08134e-06" y1="-94.2213" x2="197.784" y2="137.147" gradientUnits="userSpaceOnUse">
<stop stop-color="#2383AE"/>
<stop offset="1" stop-color="#6DD7B9"/>
</linearGradient>
</defs>
</svg>
