<svg width="100" height="100" viewBox="0 0 100 100" fill="none" xmlns="http://www.w3.org/2000/svg">
<path d="M0 50V100H50H100V50V0H50H0V50Z" fill="#007ACC"/>
<path d="M15.0317 29.6072L14.9999 33.7024L21.5079 33.7024H28.0158V52.1945L28.0158 70.6865H32.619H37.2222V52.1945L37.2222 33.7024H43.7301H50.238V29.6865C50.238 27.4643 50.1904 25.6072 50.1269 25.5596C50.0793 25.4961 42.1587 25.4643 32.5555 25.4802L15.0793 25.5278L15.0317 29.6072Z" fill="white"/>
<path d="M73.6089 25.4116C76.1486 26.0465 78.0851 27.1735 79.8629 29.0148C80.7835 29.9989 82.1486 31.7926 82.2597 32.2211C82.2914 32.3481 77.9422 35.2687 75.3073 36.9037C75.2121 36.9672 74.8311 36.5545 74.4025 35.9195C73.1168 34.0465 71.7676 33.237 69.7041 33.0941C66.6724 32.8878 64.72 34.4751 64.7359 37.1259C64.7359 37.9037 64.847 38.364 65.1644 38.9989C65.8311 40.3799 67.0692 41.2053 70.9581 42.8878C78.1168 45.9672 81.1803 47.9989 83.0851 50.8878C85.2121 54.11 85.6883 59.2529 84.2438 63.0783C82.6565 67.237 78.72 70.0624 73.1803 70.9989C71.466 71.3005 67.4025 71.2529 65.5613 70.9195C61.5454 70.2053 57.7359 68.2211 55.3867 65.618C54.466 64.6021 52.6724 61.9513 52.7835 61.7608C52.8311 61.6973 53.2438 61.4434 53.7041 61.1735C54.1486 60.9195 55.8311 59.9513 57.4184 59.0307L60.2914 57.364L60.8946 58.2529C61.7359 59.5386 63.5772 61.3005 64.6883 61.8878C67.8787 63.5703 72.2597 63.3322 74.4184 61.3957C75.3391 60.5545 75.72 59.6814 75.72 58.3957C75.72 57.237 75.5771 56.7291 74.974 55.856C74.1962 54.7449 72.6089 53.8084 68.101 51.856C62.9422 49.6338 60.72 48.2529 58.6883 46.0624C57.5137 44.7926 56.4025 42.7608 55.9422 41.0624C55.5613 39.6497 55.466 36.11 55.7676 34.6814C56.8311 29.6973 60.593 26.2211 66.0216 25.1894C67.7835 24.856 71.8787 24.983 73.6089 25.4116Z" fill="white"/>
</svg>
