<svg width="30" height="30" viewBox="0 0 30 30" fill="none" xmlns="http://www.w3.org/2000/svg">
<path d="M19.4325 0.119884C18.8499 0.28212 18.4959 0.435343 17.9945 0.741789C16.35 1.74224 15.1774 3.51783 14.7055 5.71703C14.5432 6.50117 14.4843 7.98833 14.5875 8.77247L14.6539 9.21411L13.9607 9.16003C11.5124 8.96174 8.81334 7.88918 6.52727 6.19472C5.26625 5.26637 4.34445 4.36506 3.10555 2.85987C1.78553 1.24652 1.90352 1.28258 1.55692 2.35514C0.98172 4.1848 0.930099 5.84321 1.41681 7.51063C1.7929 8.80852 2.58934 10.2236 3.39315 11.0257L3.81349 11.4403H3.57751C3.14979 11.4403 2.21325 11.1609 1.64542 10.8545L1.07021 10.5571V11.0077C1.07021 12.594 1.75603 14.5138 2.79582 15.8387C3.56276 16.8212 4.31495 17.407 5.38424 17.8397L5.97419 18.083L5.33999 18.2002C4.97127 18.2633 4.38869 18.2993 3.9536 18.2723C3.07605 18.2182 3.09817 18.1371 3.62913 19.3809C4.20433 20.7239 5.14826 21.8865 6.2323 22.5625C7.02136 23.0582 7.43432 23.2205 8.25288 23.3647L8.9092 23.4819L8.6216 23.7613C8.46674 23.9145 8.11277 24.2029 7.83992 24.4102C5.70134 25.9965 3.31941 26.7626 0.819483 26.6545C-0.271929 26.6004 -0.271929 26.6094 0.812109 27.3215C4.52143 29.755 8.52574 30.5391 12.6849 29.6378C18.9753 28.2768 23.9751 22.7969 26.0326 15.0366C26.5857 12.9455 26.8806 10.7373 26.8806 8.69135V7.49261L27.3083 7.10504C28.0974 6.37498 29.3289 4.77065 29.8673 3.75217L30 3.50881L29.6534 3.68908C28.9012 4.07664 26.7184 4.77966 26.6225 4.66249C26.6078 4.64447 26.829 4.41012 27.1166 4.13973C27.9352 3.37362 28.7169 2.06672 29.0561 0.885998L29.1519 0.552513L28.2596 1.07527C27.419 1.57099 26.4087 2.01264 25.6122 2.25599L25.2583 2.35514L24.8748 1.93152C24.1005 1.07527 23.1639 0.471395 22.1389 0.173963C21.4383 -0.0333389 20.0962 -0.0603783 19.4325 0.119884Z" fill="#909090"/>
</svg>
