<svg width="35" height="35" viewBox="0 0 35 35" fill="none" xmlns="http://www.w3.org/2000/svg">
<path d="M17.02 0C12.3932 0 11.8165 0.0223415 10.0058 0.0989411C8.18764 0.188307 6.9578 0.470236 5.87263 0.891534C4.7369 1.3203 3.70834 1.99161 2.85865 2.85865C1.98919 3.70635 1.31751 4.73548 0.891534 5.87263C0.470236 6.95779 0.188307 8.18764 0.0989411 10.0058C0.0170221 11.8176 0 12.3932 0 17.02C0 21.6468 0.0223416 22.2235 0.0989411 24.0342C0.188307 25.847 0.470236 27.0822 0.891534 28.1674C1.3203 29.3031 1.99161 30.3317 2.85865 31.1813C3.70635 32.0508 4.73548 32.7225 5.87263 33.1485C6.9578 33.5644 8.19296 33.8517 10.0058 33.9411C11.8176 34.023 12.3932 34.04 17.02 34.04C21.6468 34.04 22.2235 34.0177 24.0342 33.9411C25.847 33.8517 27.0822 33.5634 28.1674 33.1485C29.3031 32.7197 30.3317 32.0484 31.1813 31.1813C32.0519 30.3346 32.7238 29.3052 33.1485 28.1674C33.5644 27.0822 33.8517 25.847 33.9411 24.0342C34.023 22.2224 34.04 21.6468 34.04 17.02C34.04 12.3932 34.0177 11.8165 33.9411 10.0058C33.8517 8.19296 33.5634 6.95141 33.1485 5.87263C32.7197 4.7369 32.0484 3.70834 31.1813 2.85865C30.3346 1.98807 29.3052 1.31621 28.1674 0.891534C27.0822 0.470236 25.847 0.188307 24.0342 0.0989411C22.2224 0.0170221 21.6468 0 17.02 0ZM17.02 3.06398C21.5638 3.06398 22.1064 3.08632 23.9023 3.16292C25.5587 3.24059 26.4609 3.5172 27.0599 3.75125C27.8004 4.02459 28.4706 4.45964 29.0217 5.02472C29.5858 5.5735 30.0192 6.24217 30.2898 6.9812C30.5239 7.58017 30.8005 8.48234 30.8781 10.1388C30.9547 11.9346 30.9771 12.4783 30.9771 17.0211C30.9771 21.5638 30.9547 22.1075 30.8718 23.9033C30.7824 25.5598 30.5058 26.462 30.2728 27.0609C29.9504 27.8599 29.5908 28.4184 28.9972 29.0227C28.4442 29.5843 27.7745 30.0172 27.0354 30.2909C26.4439 30.5249 25.5289 30.8015 23.8661 30.8792C22.0607 30.9558 21.5287 30.9781 16.9732 30.9781C12.4176 30.9781 11.8868 30.9558 10.0792 30.8728C8.42276 30.7835 7.50889 30.5068 6.90992 30.2739C6.10137 29.9515 5.54709 29.5919 4.95344 28.9983C4.35447 28.3993 3.9736 27.8291 3.67997 27.0365C3.44166 26.4449 3.16931 25.53 3.08101 23.8672C3.02036 22.083 2.99164 21.5298 2.99164 16.9955C2.99164 12.4634 3.02036 11.9091 3.08101 10.1026C3.16931 8.43978 3.44166 7.52697 3.67997 6.93333C3.9736 6.12371 4.35554 5.57049 4.95344 4.97152C5.54602 4.37894 6.10137 3.99594 6.90992 3.69593C7.50889 3.46294 8.40042 3.18633 10.0633 3.10335C11.8687 3.03845 12.4006 3.01504 16.9498 3.01504L17.02 3.06398ZM17.02 8.28446C15.8724 8.28404 14.736 8.50976 13.6757 8.94872C12.6155 9.38768 11.6521 10.0313 10.8406 10.8427C10.0291 11.6542 9.38555 12.6176 8.94659 13.6779C8.50763 14.7382 8.28191 15.8746 8.28233 17.0221C8.28191 18.1697 8.50763 19.3061 8.94659 20.3664C9.38555 21.4267 10.0291 22.3901 10.8406 23.2015C11.6521 24.013 12.6155 24.6566 13.6757 25.0955C14.736 25.5345 15.8724 25.7602 17.02 25.7598C18.1676 25.7602 19.304 25.5345 20.3643 25.0955C21.4246 24.6566 22.388 24.013 23.1994 23.2015C24.0109 22.3901 24.6544 21.4267 25.0934 20.3664C25.5324 19.3061 25.7581 18.1697 25.7577 17.0221C25.7581 15.8746 25.5324 14.7382 25.0934 13.6779C24.6544 12.6176 24.0109 11.6542 23.1994 10.8427C22.388 10.0313 21.4246 9.38768 20.3643 8.94872C19.304 8.50976 18.1676 8.28404 17.02 8.28446V8.28446ZM17.02 22.6958C13.8837 22.6958 11.3463 20.1585 11.3463 17.0221C11.3463 13.8858 13.8837 11.3484 17.02 11.3484C20.1563 11.3484 22.6937 13.8858 22.6937 17.0221C22.6937 20.1585 20.1563 22.6958 17.02 22.6958ZM28.1525 7.9355C28.1519 8.47773 27.9361 8.99755 27.5525 9.38076C27.1689 9.76397 26.6489 9.97922 26.1066 9.97922C25.8385 9.97922 25.573 9.92641 25.3253 9.82382C25.0776 9.72122 24.8526 9.57083 24.663 9.38125C24.4734 9.19167 24.323 8.96661 24.2204 8.71891C24.1178 8.47122 24.065 8.20574 24.065 7.93763C24.065 7.66953 24.1178 7.40404 24.2204 7.15635C24.323 6.90865 24.4734 6.68359 24.663 6.49401C24.8526 6.30443 25.0776 6.15405 25.3253 6.05145C25.573 5.94885 25.8385 5.89604 26.1066 5.89604C27.2312 5.89604 28.1525 6.81098 28.1525 7.9355V7.9355Z" fill="black"/>
</svg>
