<svg width="35" height="35" viewBox="0 0 35 35" fill="none" xmlns="http://www.w3.org/2000/svg">
<path d="M22.6453 1.09603C21.9664 1.28011 21.5539 1.45397 20.9696 1.80168C19.0532 2.93687 17.6868 4.95156 17.1368 7.44692C16.9477 8.33666 16.879 10.0241 16.9993 10.9138L17.0766 11.4149L16.2688 11.3536C13.4157 11.1286 10.2705 9.91159 7.60645 7.98894C6.13693 6.93557 5.06273 5.91289 3.619 4.205C2.08074 2.37439 2.21824 2.41529 1.81433 3.63229C1.14403 5.70835 1.08388 7.59009 1.65106 9.48207C2.08933 10.9547 3.01744 12.5604 3.95415 13.4705L4.44399 13.941H4.16899C3.67056 13.941 2.57917 13.624 1.91746 13.2762L1.24715 12.9387V13.4501C1.24715 15.25 2.04636 17.4283 3.25807 18.9317C4.1518 20.0464 5.02836 20.7112 6.27443 21.2021L6.96192 21.4782L6.22287 21.6111C5.79319 21.6827 5.11429 21.7236 4.60727 21.693C3.58462 21.6316 3.6104 21.5396 4.22915 22.9509C4.89945 24.4747 5.99944 25.7939 7.2627 26.5609C8.18222 27.1234 8.66346 27.3075 9.61736 27.4711L10.3822 27.6041L10.047 27.9211C9.86657 28.095 9.45408 28.4222 9.13612 28.6575C6.64396 30.4574 3.86821 31.3267 0.954971 31.204C-0.316888 31.1426 -0.316888 31.1528 0.946377 31.9607C5.26898 34.722 9.93532 35.6117 14.7821 34.589C22.1125 33.0448 27.939 26.8268 30.3366 18.0215C30.9811 15.6489 31.3249 13.1433 31.3249 10.8218V9.46161L31.8233 9.02186C32.7428 8.19348 34.178 6.3731 34.8053 5.21746L34.96 4.94133L34.5561 5.14587C33.6795 5.58563 31.1358 6.38332 31.0241 6.25037C31.0069 6.22992 31.2647 5.96402 31.5999 5.65721C32.5538 4.78793 33.4647 3.30503 33.86 1.96531L33.9717 1.58692L32.9319 2.18008C31.9522 2.74255 30.7749 3.24367 29.8468 3.5198L29.4343 3.63229L28.9874 3.15163C28.0851 2.18008 26.9937 1.49488 25.7992 1.15739C24.9828 0.922171 23.4187 0.89149 22.6453 1.09603Z" fill="black"/>
</svg>
