<svg width="50" height="50" viewBox="0 0 50 50" fill="none" xmlns="http://www.w3.org/2000/svg">
<path d="M19.53 0.445513C15.152 1.42429 10.774 3.8908 7.37322 7.25779C-2.43819 17.1238 -2.47728 32.7451 7.37322 42.5329C10.1486 45.2734 14.9565 48.4055 16.4419 48.4055C16.8328 48.4055 16.9892 47.8183 16.9501 46.1739L16.8719 43.9031L14.8784 42.7286C10.9694 40.4187 7.4514 36.2295 5.77056 31.8838C4.75424 29.2998 4.40244 23.6229 5.02787 20.53C6.82597 11.9168 15.5038 4.55637 23.908 4.55637H26.1752L26.2533 20.2951L26.3706 36.0729H32.8203H39.2701L40.56 34.1545C41.2245 33.1366 41.8109 32.1187 41.8109 31.9229C41.8109 31.7272 39.3483 31.5706 36.3384 31.5706H30.8659V16.1451C30.8659 5.45684 30.7486 0.602117 30.4359 0.406362C29.5368 -0.141752 22.0708 -0.141752 19.53 0.445513Z" fill="#BCBCBC"/>
<path d="M33.1331 3.77342L33.2894 6.12248L35.3221 7.25786C37.9411 8.78475 41.8109 12.8173 43.1399 15.4404C46.1107 21.2739 46.0716 28.9084 43.0618 34.4678C41.5373 37.3258 37.7456 41.1626 35.0094 42.7287C32.1559 44.2947 28.7551 45.2735 25.9016 45.2735H23.8298L23.7517 26.207L23.6344 7.10126L19.6082 12.8956C17.3801 16.0668 15.5038 18.6508 15.4256 18.6508C15.3475 18.6508 14.4093 17.5154 13.3148 16.106C12.2203 14.6966 11.1649 13.5612 11.0086 13.5612C10.4613 13.5612 8.27231 17.6329 7.64688 19.7862C6.31784 24.3669 7.17781 30.9442 9.60134 34.4678L10.6177 35.9556L12.2203 34.3895L13.7839 32.8235L12.9239 31.1008C11.8294 28.7909 11.1649 25.3065 11.5167 23.4664L11.7903 21.9786L13.7057 24.132C14.8784 25.4631 15.7384 26.1287 15.8947 25.8546C16.0902 25.6588 16.8329 24.6018 17.5756 23.5838L18.9437 21.7046L19.1391 35.5249L19.3346 49.3844L20.8981 49.6584C31.2959 51.4985 42.5536 45.7433 47.2443 36.2688C50.9187 28.7518 50.9187 21.0782 47.2443 13.5612C45.1335 9.33286 40.99 5.02625 36.8857 2.87294C33.094 0.915393 32.9767 0.915393 33.1331 3.77342Z" fill="#BCBCBC"/>
</svg>
